<mxfile host="65bd71144e" scale="2" border="0" modified="2024-06-26T15:39:57.937Z" agent="Mozilla/5.0 (Windows NT 10.0; Win64; x64) AppleWebKit/537.36 (KHTML, like Gecko) Code/1.90.2 Chrome/122.0.6261.156 Electron/29.4.0 Safari/537.36" version="24.6.3" etag="5Iu8FrqtVwnhK5cEDyfx" type="embed">
    <diagram id="I4dKGTPQtQzw9f7KV-TR" name="Page-1">
        <mxGraphModel dx="1941" dy="952" grid="1" gridSize="10" guides="1" tooltips="1" connect="1" arrows="1" fold="1" page="1" pageScale="1" pageWidth="850" pageHeight="1100" background="#ffffff" math="0" shadow="0">
            <root>
                <mxCell id="0"/>
                <mxCell id="1" parent="0"/>
                <mxCell id="495" value="" style="rounded=1;whiteSpace=wrap;html=1;strokeWidth=1;fontFamily=Helvetica;fontSize=17;align=left;verticalAlign=top;spacingRight=0;spacingLeft=12;spacingTop=5;spacing=0;absoluteArcSize=1;arcSize=15;fontStyle=2;shadow=0;strokeColor=#3F90DA;fillColor=#5790FC;opacity=60;" parent="1" vertex="1">
                    <mxGeometry x="433.87" y="120" width="131" height="40" as="geometry"/>
                </mxCell>
                <mxCell id="496" value="" style="rounded=1;whiteSpace=wrap;html=1;strokeWidth=1;fontFamily=Helvetica;fontSize=17;align=left;verticalAlign=top;spacingRight=0;spacingLeft=12;spacingTop=5;spacing=0;absoluteArcSize=1;arcSize=15;fontStyle=2;shadow=0;strokeColor=#9673a6;fillColor=#964A8B;opacity=60;" parent="1" vertex="1">
                    <mxGeometry x="642.87" y="120" width="80" height="40" as="geometry"/>
                </mxCell>
                <mxCell id="499" value="" style="rounded=1;whiteSpace=wrap;html=1;strokeWidth=1;fontFamily=Helvetica;fontSize=17;align=left;verticalAlign=top;spacingRight=0;spacingLeft=12;spacingTop=5;spacing=0;absoluteArcSize=1;arcSize=15;fontStyle=2;shadow=0;strokeColor=#d79b00;fillColor=#F89C20;opacity=60;" parent="1" vertex="1">
                    <mxGeometry x="465" y="260" width="114.87" height="40" as="geometry"/>
                </mxCell>
                <mxCell id="219" value="" style="rounded=1;whiteSpace=wrap;html=1;strokeWidth=1;fontFamily=Helvetica;fontSize=17;align=left;verticalAlign=top;spacingRight=0;spacingLeft=12;spacingTop=5;spacing=0;absoluteArcSize=1;arcSize=15;fontStyle=2;shadow=0;strokeColor=#3F90DA;fillColor=#5790FC;opacity=60;" parent="1" vertex="1">
                    <mxGeometry x="140" y="120" width="80" height="40" as="geometry"/>
                </mxCell>
                <mxCell id="220" value="" style="rounded=1;whiteSpace=wrap;html=1;strokeWidth=1;fontFamily=Helvetica;fontSize=17;align=left;verticalAlign=top;spacingRight=0;spacingLeft=12;spacingTop=5;spacing=0;absoluteArcSize=1;arcSize=15;fontStyle=2;shadow=0;strokeColor=#9673a6;fillColor=#964A8B;opacity=60;" parent="1" vertex="1">
                    <mxGeometry x="313" y="120" width="80" height="40" as="geometry"/>
                </mxCell>
                <mxCell id="230" value="Server" style="text;html=1;align=center;verticalAlign=middle;whiteSpace=wrap;rounded=0;fontStyle=2;fontSize=17;fontFamily=Helvetica;shadow=0;" parent="1" vertex="1">
                    <mxGeometry x="20" y="130" width="60" height="20" as="geometry"/>
                </mxCell>
                <mxCell id="269" value="LGT&lt;br&gt;iteration &lt;i&gt;j&lt;/i&gt;" style="text;html=1;strokeColor=none;fillColor=none;align=center;verticalAlign=middle;whiteSpace=wrap;rounded=0;dashed=1;fontFamily=Helvetica;fontSize=17;" parent="1" vertex="1">
                    <mxGeometry x="313" y="325" width="92.5" height="35" as="geometry"/>
                </mxCell>
                <mxCell id="351" value="" style="endArrow=classic;dashed=1;html=1;strokeWidth=2;fontSize=17;fontFamily=Helvetica;shadow=0;endFill=1;" parent="1" edge="1">
                    <mxGeometry width="50" height="50" relative="1" as="geometry">
                        <mxPoint x="120" y="140" as="sourcePoint"/>
                        <mxPoint x="820" y="140" as="targetPoint"/>
                    </mxGeometry>
                </mxCell>
                <mxCell id="354" value="&lt;i style=&quot;font-size: 17px; text-wrap: wrap; font-weight: 700; background-color: rgb(251, 251, 251); border-color: var(--border-color);&quot;&gt;Î´&lt;/i&gt;" style="endArrow=classic;html=1;fontFamily=Helvetica;" parent="1" edge="1">
                    <mxGeometry x="-0.4213" y="-7" width="50" height="50" relative="1" as="geometry">
                        <mxPoint x="260" y="280" as="sourcePoint"/>
                        <mxPoint x="270" y="140" as="targetPoint"/>
                        <mxPoint as="offset"/>
                    </mxGeometry>
                </mxCell>
                <mxCell id="361" value="" style="rounded=1;whiteSpace=wrap;html=1;strokeWidth=1;fontFamily=Helvetica;fontSize=17;align=left;verticalAlign=top;spacingRight=0;spacingLeft=12;spacingTop=5;spacing=0;absoluteArcSize=1;arcSize=15;fontStyle=2;shadow=0;strokeColor=#82b366;fillColor=#A0AD7B;opacity=60;" parent="1" vertex="1">
                    <mxGeometry x="327.5" y="260" width="58.75" height="40" as="geometry"/>
                </mxCell>
                <mxCell id="363" value="" style="rounded=1;whiteSpace=wrap;html=1;strokeWidth=1;fontFamily=Helvetica;fontSize=17;align=left;verticalAlign=top;spacingRight=0;spacingLeft=12;spacingTop=5;spacing=0;absoluteArcSize=1;arcSize=15;fontStyle=2;shadow=0;strokeColor=#d79b00;fillColor=#F89C20;opacity=60;" parent="1" vertex="1">
                    <mxGeometry x="140" y="260" width="110" height="40" as="geometry"/>
                </mxCell>
                <mxCell id="364" value="Client" style="text;html=1;align=center;verticalAlign=middle;whiteSpace=wrap;rounded=0;fontStyle=2;fontSize=17;fontFamily=Helvetica;shadow=0;" parent="1" vertex="1">
                    <mxGeometry x="25" y="270" width="50" height="20" as="geometry"/>
                </mxCell>
                <mxCell id="365" value="" style="endArrow=classic;dashed=1;html=1;strokeWidth=2;fontSize=17;fontFamily=Helvetica;shadow=0;endFill=1;" parent="1" edge="1">
                    <mxGeometry width="50" height="50" relative="1" as="geometry">
                        <mxPoint x="118.75" y="280" as="sourcePoint"/>
                        <mxPoint x="820" y="280" as="targetPoint"/>
                    </mxGeometry>
                </mxCell>
                <mxCell id="367" value="" style="group;fontFamily=Helvetica;" parent="1" vertex="1" connectable="0">
                    <mxGeometry x="150" y="120" width="70" height="139" as="geometry"/>
                </mxCell>
                <mxCell id="368" value="" style="curved=1;endArrow=none;html=1;endFill=0;fillColor=#e1d5e7;strokeColor=#9933FF;fontFamily=Helvetica;" parent="367" source="375" target="372" edge="1">
                    <mxGeometry width="50" height="50" relative="1" as="geometry">
                        <mxPoint x="-10" y="68" as="sourcePoint"/>
                        <mxPoint x="34" y="40" as="targetPoint"/>
                        <Array as="points">
                            <mxPoint x="20" y="103"/>
                            <mxPoint x="60" y="90"/>
                            <mxPoint y="60"/>
                        </Array>
                    </mxGeometry>
                </mxCell>
                <mxCell id="369" value="" style="curved=1;endArrow=none;html=1;endFill=0;fillColor=#e1d5e7;strokeColor=#9933FF;fontFamily=Helvetica;" parent="367" target="372" edge="1">
                    <mxGeometry width="50" height="50" relative="1" as="geometry">
                        <mxPoint x="36" y="127" as="sourcePoint"/>
                        <mxPoint x="30" y="18" as="targetPoint"/>
                        <Array as="points">
                            <mxPoint x="50" y="103"/>
                            <mxPoint x="10" y="90"/>
                            <mxPoint x="70" y="60"/>
                        </Array>
                    </mxGeometry>
                </mxCell>
                <mxCell id="370" value="" style="group;fontFamily=Helvetica;" parent="367" vertex="1" connectable="0">
                    <mxGeometry x="25" y="33" width="25" height="32" as="geometry"/>
                </mxCell>
                <mxCell id="371" value="" style="endArrow=classic;html=1;strokeWidth=3;endSize=0;strokeColor=#9933FF;fontFamily=Helvetica;" parent="370" edge="1">
                    <mxGeometry width="50" height="50" relative="1" as="geometry">
                        <mxPoint y="32" as="sourcePoint"/>
                        <mxPoint x="25" as="targetPoint"/>
                    </mxGeometry>
                </mxCell>
                <mxCell id="372" value="" style="ellipse;whiteSpace=wrap;html=1;aspect=fixed;fillColor=#9933FF;strokeColor=#9933FF;gradientColor=#CC99FF;gradientDirection=north;fontFamily=Helvetica;" parent="370" vertex="1">
                    <mxGeometry x="1" y="8" width="20" height="20" as="geometry"/>
                </mxCell>
                <mxCell id="373" value="" style="group;fontFamily=Helvetica;" parent="367" vertex="1" connectable="0">
                    <mxGeometry x="25" y="111" width="25" height="32" as="geometry"/>
                </mxCell>
                <mxCell id="374" value="" style="endArrow=classic;html=1;strokeWidth=3;endSize=0;strokeColor=#9933FF;fontFamily=Helvetica;" parent="373" edge="1">
                    <mxGeometry width="50" height="50" relative="1" as="geometry">
                        <mxPoint y="32" as="sourcePoint"/>
                        <mxPoint x="25" as="targetPoint"/>
                    </mxGeometry>
                </mxCell>
                <mxCell id="375" value="" style="ellipse;whiteSpace=wrap;html=1;aspect=fixed;fillColor=#9933FF;strokeColor=#9933FF;gradientColor=#CC99FF;gradientDirection=north;fontFamily=Helvetica;" parent="373" vertex="1">
                    <mxGeometry x="1" y="8" width="20" height="20" as="geometry"/>
                </mxCell>
                <mxCell id="395" value="" style="group;fontFamily=Helvetica;" parent="1" vertex="1" connectable="0">
                    <mxGeometry x="212" y="230" width="26" height="32" as="geometry"/>
                </mxCell>
                <mxCell id="396" value="" style="group;fontFamily=Helvetica;" parent="395" vertex="1" connectable="0">
                    <mxGeometry x="1" width="25" height="32" as="geometry"/>
                </mxCell>
                <mxCell id="397" value="" style="endArrow=classic;html=1;strokeWidth=3;endSize=0;strokeColor=#CCCCCC;fillColor=#f5f5f5;dashed=1;dashPattern=1 4;fontFamily=Helvetica;" parent="396" edge="1">
                    <mxGeometry width="50" height="50" relative="1" as="geometry">
                        <mxPoint y="32" as="sourcePoint"/>
                        <mxPoint x="25" as="targetPoint"/>
                    </mxGeometry>
                </mxCell>
                <mxCell id="398" value="" style="ellipse;whiteSpace=wrap;html=1;aspect=fixed;fillColor=#f5f5f5;strokeColor=#666666;gradientDirection=north;fontColor=#333333;dashed=1;fontFamily=Helvetica;" parent="396" vertex="1">
                    <mxGeometry x="1" y="8" width="20" height="20" as="geometry"/>
                </mxCell>
                <mxCell id="399" value="" style="endArrow=none;html=1;strokeColor=#FF0000;fontFamily=Helvetica;" parent="395" edge="1">
                    <mxGeometry width="50" height="50" relative="1" as="geometry">
                        <mxPoint y="6" as="sourcePoint"/>
                        <mxPoint x="23" y="29" as="targetPoint"/>
                    </mxGeometry>
                </mxCell>
                <mxCell id="400" value="" style="endArrow=none;html=1;strokeColor=#FF0000;fontFamily=Helvetica;" parent="395" edge="1">
                    <mxGeometry width="50" height="50" relative="1" as="geometry">
                        <mxPoint x="2" y="29" as="sourcePoint"/>
                        <mxPoint x="24" y="5" as="targetPoint"/>
                    </mxGeometry>
                </mxCell>
                <mxCell id="401" value="" style="group;fontFamily=Helvetica;" parent="1" vertex="1" connectable="0">
                    <mxGeometry x="352" y="155" width="26" height="32" as="geometry"/>
                </mxCell>
                <mxCell id="402" value="" style="group;fontFamily=Helvetica;" parent="401" vertex="1" connectable="0">
                    <mxGeometry x="1" width="25" height="32" as="geometry"/>
                </mxCell>
                <mxCell id="403" value="" style="endArrow=classic;html=1;strokeWidth=3;endSize=0;strokeColor=#CCCCCC;fillColor=#f5f5f5;dashed=1;dashPattern=1 4;fontFamily=Helvetica;" parent="402" edge="1">
                    <mxGeometry width="50" height="50" relative="1" as="geometry">
                        <mxPoint y="32" as="sourcePoint"/>
                        <mxPoint x="25" as="targetPoint"/>
                    </mxGeometry>
                </mxCell>
                <mxCell id="404" value="" style="ellipse;whiteSpace=wrap;html=1;aspect=fixed;fillColor=#f5f5f5;strokeColor=#666666;gradientDirection=north;fontColor=#333333;dashed=1;fontFamily=Helvetica;" parent="402" vertex="1">
                    <mxGeometry x="1" y="8" width="20" height="20" as="geometry"/>
                </mxCell>
                <mxCell id="405" value="" style="endArrow=none;html=1;strokeColor=#FF0000;fontFamily=Helvetica;" parent="401" edge="1">
                    <mxGeometry width="50" height="50" relative="1" as="geometry">
                        <mxPoint y="6" as="sourcePoint"/>
                        <mxPoint x="23" y="29" as="targetPoint"/>
                    </mxGeometry>
                </mxCell>
                <mxCell id="406" value="" style="endArrow=none;html=1;strokeColor=#FF0000;fontFamily=Helvetica;" parent="401" edge="1">
                    <mxGeometry width="50" height="50" relative="1" as="geometry">
                        <mxPoint x="2" y="29" as="sourcePoint"/>
                        <mxPoint x="24" y="5" as="targetPoint"/>
                    </mxGeometry>
                </mxCell>
                <mxCell id="407" value="" style="group;fontFamily=Helvetica;" parent="1" vertex="1" connectable="0">
                    <mxGeometry x="332.5" y="230" width="25" height="32" as="geometry"/>
                </mxCell>
                <mxCell id="408" value="" style="endArrow=classic;html=1;strokeWidth=3;endSize=0;strokeColor=#9933FF;fontFamily=Helvetica;" parent="407" edge="1">
                    <mxGeometry width="50" height="50" relative="1" as="geometry">
                        <mxPoint y="32" as="sourcePoint"/>
                        <mxPoint x="25" as="targetPoint"/>
                    </mxGeometry>
                </mxCell>
                <mxCell id="409" value="" style="ellipse;whiteSpace=wrap;html=1;aspect=fixed;fillColor=#9933FF;strokeColor=#9933FF;gradientColor=#CC99FF;gradientDirection=north;fontFamily=Helvetica;" parent="407" vertex="1">
                    <mxGeometry x="1" y="8" width="20" height="20" as="geometry"/>
                </mxCell>
                <mxCell id="410" value="" style="group;fontFamily=Helvetica;" parent="1" vertex="1" connectable="0">
                    <mxGeometry x="357.5" y="230" width="26" height="32" as="geometry"/>
                </mxCell>
                <mxCell id="411" value="" style="group;fontFamily=Helvetica;" parent="410" vertex="1" connectable="0">
                    <mxGeometry x="1" width="25" height="32" as="geometry"/>
                </mxCell>
                <mxCell id="412" value="" style="endArrow=classic;html=1;strokeWidth=3;endSize=0;strokeColor=#CCCCCC;fillColor=#f5f5f5;dashed=1;dashPattern=1 4;fontFamily=Helvetica;" parent="411" edge="1">
                    <mxGeometry width="50" height="50" relative="1" as="geometry">
                        <mxPoint y="32" as="sourcePoint"/>
                        <mxPoint x="25" as="targetPoint"/>
                    </mxGeometry>
                </mxCell>
                <mxCell id="413" value="" style="ellipse;whiteSpace=wrap;html=1;aspect=fixed;fillColor=#f5f5f5;strokeColor=#666666;gradientDirection=north;fontColor=#333333;dashed=1;fontFamily=Helvetica;" parent="411" vertex="1">
                    <mxGeometry x="1" y="8" width="20" height="20" as="geometry"/>
                </mxCell>
                <mxCell id="414" value="" style="endArrow=none;html=1;strokeColor=#FF0000;fontFamily=Helvetica;" parent="410" edge="1">
                    <mxGeometry width="50" height="50" relative="1" as="geometry">
                        <mxPoint y="6" as="sourcePoint"/>
                        <mxPoint x="23" y="29" as="targetPoint"/>
                    </mxGeometry>
                </mxCell>
                <mxCell id="415" value="" style="endArrow=none;html=1;strokeColor=#FF0000;fontFamily=Helvetica;" parent="410" edge="1">
                    <mxGeometry width="50" height="50" relative="1" as="geometry">
                        <mxPoint x="2" y="29" as="sourcePoint"/>
                        <mxPoint x="24" y="5" as="targetPoint"/>
                    </mxGeometry>
                </mxCell>
                <mxCell id="497" value="&lt;i style=&quot;font-size: 17px; text-wrap: wrap; font-weight: 700; background-color: rgb(251, 251, 251); border-color: var(--border-color);&quot;&gt;Î´&lt;/i&gt;" style="endArrow=classic;html=1;fontFamily=Helvetica;" parent="1" edge="1">
                    <mxGeometry x="-0.4213" y="-7" width="50" height="50" relative="1" as="geometry">
                        <mxPoint x="589.87" y="280" as="sourcePoint"/>
                        <mxPoint x="599.87" y="140" as="targetPoint"/>
                        <mxPoint as="offset"/>
                    </mxGeometry>
                </mxCell>
                <mxCell id="500" value="" style="group;fontFamily=Helvetica;" parent="1" vertex="1" connectable="0">
                    <mxGeometry x="479.87" y="120" width="70" height="139" as="geometry"/>
                </mxCell>
                <mxCell id="501" value="" style="curved=1;endArrow=none;html=1;endFill=0;fillColor=#e1d5e7;strokeColor=#9933FF;fontFamily=Helvetica;" parent="500" source="508" target="505" edge="1">
                    <mxGeometry width="50" height="50" relative="1" as="geometry">
                        <mxPoint x="-10" y="68" as="sourcePoint"/>
                        <mxPoint x="34" y="40" as="targetPoint"/>
                        <Array as="points">
                            <mxPoint x="20" y="103"/>
                            <mxPoint x="60" y="90"/>
                            <mxPoint y="60"/>
                        </Array>
                    </mxGeometry>
                </mxCell>
                <mxCell id="502" value="" style="curved=1;endArrow=none;html=1;endFill=0;fillColor=#e1d5e7;strokeColor=#9933FF;fontFamily=Helvetica;" parent="500" target="505" edge="1">
                    <mxGeometry width="50" height="50" relative="1" as="geometry">
                        <mxPoint x="36" y="127" as="sourcePoint"/>
                        <mxPoint x="30" y="18" as="targetPoint"/>
                        <Array as="points">
                            <mxPoint x="50" y="103"/>
                            <mxPoint x="10" y="90"/>
                            <mxPoint x="70" y="60"/>
                        </Array>
                    </mxGeometry>
                </mxCell>
                <mxCell id="503" value="" style="group;fontFamily=Helvetica;" parent="500" vertex="1" connectable="0">
                    <mxGeometry x="25" y="33" width="25" height="32" as="geometry"/>
                </mxCell>
                <mxCell id="504" value="" style="endArrow=classic;html=1;strokeWidth=3;endSize=0;strokeColor=#9933FF;fontFamily=Helvetica;" parent="503" edge="1">
                    <mxGeometry width="50" height="50" relative="1" as="geometry">
                        <mxPoint y="32" as="sourcePoint"/>
                        <mxPoint x="25" as="targetPoint"/>
                    </mxGeometry>
                </mxCell>
                <mxCell id="505" value="" style="ellipse;whiteSpace=wrap;html=1;aspect=fixed;fillColor=#9933FF;strokeColor=#9933FF;gradientColor=#CC99FF;gradientDirection=north;fontFamily=Helvetica;" parent="503" vertex="1">
                    <mxGeometry x="1" y="8" width="20" height="20" as="geometry"/>
                </mxCell>
                <mxCell id="506" value="" style="group;fontFamily=Helvetica;" parent="500" vertex="1" connectable="0">
                    <mxGeometry x="25" y="111" width="25" height="32" as="geometry"/>
                </mxCell>
                <mxCell id="507" value="" style="endArrow=classic;html=1;strokeWidth=3;endSize=0;strokeColor=#9933FF;fontFamily=Helvetica;" parent="506" edge="1">
                    <mxGeometry width="50" height="50" relative="1" as="geometry">
                        <mxPoint y="32" as="sourcePoint"/>
                        <mxPoint x="25" as="targetPoint"/>
                    </mxGeometry>
                </mxCell>
                <mxCell id="508" value="" style="ellipse;whiteSpace=wrap;html=1;aspect=fixed;fillColor=#9933FF;strokeColor=#9933FF;gradientColor=#CC99FF;gradientDirection=north;fontFamily=Helvetica;" parent="506" vertex="1">
                    <mxGeometry x="1" y="8" width="20" height="20" as="geometry"/>
                </mxCell>
                <mxCell id="510" value="" style="group;fontFamily=Helvetica;" parent="1" vertex="1" connectable="0">
                    <mxGeometry x="541.87" y="230" width="26" height="32" as="geometry"/>
                </mxCell>
                <mxCell id="511" value="" style="group;fontFamily=Helvetica;" parent="510" vertex="1" connectable="0">
                    <mxGeometry x="1" width="25" height="32" as="geometry"/>
                </mxCell>
                <mxCell id="512" value="" style="endArrow=classic;html=1;strokeWidth=3;endSize=0;strokeColor=#CCCCCC;fillColor=#f5f5f5;dashed=1;dashPattern=1 4;fontFamily=Helvetica;" parent="511" edge="1">
                    <mxGeometry width="50" height="50" relative="1" as="geometry">
                        <mxPoint y="32" as="sourcePoint"/>
                        <mxPoint x="25" as="targetPoint"/>
                    </mxGeometry>
                </mxCell>
                <mxCell id="513" value="" style="ellipse;whiteSpace=wrap;html=1;aspect=fixed;fillColor=#f5f5f5;strokeColor=#666666;gradientDirection=north;fontColor=#333333;dashed=1;fontFamily=Helvetica;" parent="511" vertex="1">
                    <mxGeometry x="1" y="8" width="20" height="20" as="geometry"/>
                </mxCell>
                <mxCell id="514" value="" style="endArrow=none;html=1;strokeColor=#FF0000;fontFamily=Helvetica;" parent="510" edge="1">
                    <mxGeometry width="50" height="50" relative="1" as="geometry">
                        <mxPoint y="6" as="sourcePoint"/>
                        <mxPoint x="23" y="29" as="targetPoint"/>
                    </mxGeometry>
                </mxCell>
                <mxCell id="515" value="" style="endArrow=none;html=1;strokeColor=#FF0000;fontFamily=Helvetica;" parent="510" edge="1">
                    <mxGeometry width="50" height="50" relative="1" as="geometry">
                        <mxPoint x="2" y="29" as="sourcePoint"/>
                        <mxPoint x="24" y="5" as="targetPoint"/>
                    </mxGeometry>
                </mxCell>
                <mxCell id="516" value="" style="group;fontFamily=Helvetica;" parent="1" vertex="1" connectable="0">
                    <mxGeometry x="681.87" y="155" width="26" height="32" as="geometry"/>
                </mxCell>
                <mxCell id="517" value="" style="group;fontFamily=Helvetica;" parent="516" vertex="1" connectable="0">
                    <mxGeometry x="1" width="25" height="32" as="geometry"/>
                </mxCell>
                <mxCell id="518" value="" style="endArrow=classic;html=1;strokeWidth=3;endSize=0;strokeColor=#CCCCCC;fillColor=#f5f5f5;dashed=1;dashPattern=1 4;fontFamily=Helvetica;" parent="517" edge="1">
                    <mxGeometry width="50" height="50" relative="1" as="geometry">
                        <mxPoint y="32" as="sourcePoint"/>
                        <mxPoint x="25" as="targetPoint"/>
                    </mxGeometry>
                </mxCell>
                <mxCell id="519" value="" style="ellipse;whiteSpace=wrap;html=1;aspect=fixed;fillColor=#f5f5f5;strokeColor=#666666;gradientDirection=north;fontColor=#333333;dashed=1;fontFamily=Helvetica;" parent="517" vertex="1">
                    <mxGeometry x="1" y="8" width="20" height="20" as="geometry"/>
                </mxCell>
                <mxCell id="520" value="" style="endArrow=none;html=1;strokeColor=#FF0000;fontFamily=Helvetica;" parent="516" edge="1">
                    <mxGeometry width="50" height="50" relative="1" as="geometry">
                        <mxPoint y="6" as="sourcePoint"/>
                        <mxPoint x="23" y="29" as="targetPoint"/>
                    </mxGeometry>
                </mxCell>
                <mxCell id="521" value="" style="endArrow=none;html=1;strokeColor=#FF0000;fontFamily=Helvetica;" parent="516" edge="1">
                    <mxGeometry width="50" height="50" relative="1" as="geometry">
                        <mxPoint x="2" y="29" as="sourcePoint"/>
                        <mxPoint x="24" y="5" as="targetPoint"/>
                    </mxGeometry>
                </mxCell>
                <mxCell id="549" value="&lt;span style=&quot;font-size: 17px;&quot;&gt;DQC&lt;br&gt;i&lt;/span&gt;&lt;span style=&quot;font-size: 17px;&quot;&gt;teration&amp;nbsp;&lt;/span&gt;&lt;i style=&quot;font-size: 17px;&quot;&gt;i&lt;/i&gt;" style="text;html=1;align=center;verticalAlign=middle;whiteSpace=wrap;rounded=0;fontFamily=Helvetica;" parent="1" vertex="1">
                    <mxGeometry x="120" y="322.5" width="170" height="40" as="geometry"/>
                </mxCell>
                <mxCell id="550" value="" style="endArrow=none;html=1;dashed=1;fontFamily=Helvetica;" parent="1" edge="1">
                    <mxGeometry width="50" height="50" relative="1" as="geometry">
                        <mxPoint x="467.37" y="320" as="sourcePoint"/>
                        <mxPoint x="600" y="320" as="targetPoint"/>
                    </mxGeometry>
                </mxCell>
                <mxCell id="551" value="" style="endArrow=none;html=1;dashed=1;fontFamily=Helvetica;" parent="1" edge="1">
                    <mxGeometry width="50" height="50" relative="1" as="geometry">
                        <mxPoint x="467.37" y="320" as="sourcePoint"/>
                        <mxPoint x="467.37" y="310" as="targetPoint"/>
                    </mxGeometry>
                </mxCell>
                <mxCell id="552" value="" style="endArrow=none;html=1;dashed=1;fontFamily=Helvetica;" parent="1" edge="1">
                    <mxGeometry width="50" height="50" relative="1" as="geometry">
                        <mxPoint x="600" y="320" as="sourcePoint"/>
                        <mxPoint x="600" y="310" as="targetPoint"/>
                    </mxGeometry>
                </mxCell>
                <mxCell id="553" value="&lt;span style=&quot;font-size: 17px;&quot;&gt;DQC&lt;/span&gt;&lt;br style=&quot;font-size: 17px;&quot;&gt;&lt;span style=&quot;font-size: 17px;&quot;&gt;iteration&amp;nbsp;&lt;/span&gt;&lt;i style=&quot;font-size: 17px;&quot;&gt;i + 1&lt;/i&gt;" style="text;html=1;align=center;verticalAlign=middle;whiteSpace=wrap;rounded=0;fontFamily=Helvetica;" parent="1" vertex="1">
                    <mxGeometry x="454.87" y="322.5" width="146" height="40" as="geometry"/>
                </mxCell>
                <mxCell id="555" value="" style="group;fontFamily=Helvetica;" parent="1" vertex="1" connectable="0">
                    <mxGeometry x="130" y="310" width="140" height="10" as="geometry"/>
                </mxCell>
                <mxCell id="545" value="" style="endArrow=none;html=1;dashed=1;fontFamily=Helvetica;" parent="555" edge="1">
                    <mxGeometry width="50" height="50" relative="1" as="geometry">
                        <mxPoint y="10" as="sourcePoint"/>
                        <mxPoint x="140" y="10" as="targetPoint"/>
                    </mxGeometry>
                </mxCell>
                <mxCell id="546" value="" style="endArrow=none;html=1;dashed=1;fontFamily=Helvetica;" parent="555" edge="1">
                    <mxGeometry width="50" height="50" relative="1" as="geometry">
                        <mxPoint y="10" as="sourcePoint"/>
                        <mxPoint as="targetPoint"/>
                    </mxGeometry>
                </mxCell>
                <mxCell id="547" value="" style="endArrow=none;html=1;dashed=1;fontFamily=Helvetica;" parent="555" edge="1">
                    <mxGeometry width="50" height="50" relative="1" as="geometry">
                        <mxPoint x="140" y="10" as="sourcePoint"/>
                        <mxPoint x="140" as="targetPoint"/>
                    </mxGeometry>
                </mxCell>
                <mxCell id="556" value="" style="group;fontFamily=Helvetica;" parent="1" vertex="1" connectable="0">
                    <mxGeometry x="317.5" y="310" width="80" height="10" as="geometry"/>
                </mxCell>
                <mxCell id="557" value="" style="endArrow=none;html=1;dashed=1;fontFamily=Helvetica;" parent="556" edge="1">
                    <mxGeometry width="50" height="50" relative="1" as="geometry">
                        <mxPoint y="10" as="sourcePoint"/>
                        <mxPoint x="80" y="10" as="targetPoint"/>
                    </mxGeometry>
                </mxCell>
                <mxCell id="558" value="" style="endArrow=none;html=1;dashed=1;fontFamily=Helvetica;" parent="556" edge="1">
                    <mxGeometry width="50" height="50" relative="1" as="geometry">
                        <mxPoint y="10" as="sourcePoint"/>
                        <mxPoint as="targetPoint"/>
                    </mxGeometry>
                </mxCell>
                <mxCell id="559" value="" style="endArrow=none;html=1;dashed=1;fontFamily=Helvetica;" parent="556" edge="1">
                    <mxGeometry width="50" height="50" relative="1" as="geometry">
                        <mxPoint x="80" y="10" as="sourcePoint"/>
                        <mxPoint x="80" as="targetPoint"/>
                    </mxGeometry>
                </mxCell>
                <mxCell id="566" value="" style="rounded=1;whiteSpace=wrap;html=1;strokeWidth=1;fontFamily=Helvetica;fontSize=17;align=left;verticalAlign=top;spacingRight=0;spacingLeft=12;spacingTop=5;spacing=0;absoluteArcSize=1;arcSize=15;fontStyle=2;shadow=0;strokeColor=#82b366;fillColor=#A0AD7B;opacity=60;" parent="1" vertex="1">
                    <mxGeometry x="723.37" y="260" width="58.75" height="40" as="geometry"/>
                </mxCell>
                <mxCell id="567" value="" style="rounded=1;whiteSpace=wrap;html=1;strokeWidth=1;fontFamily=Helvetica;fontSize=17;align=left;verticalAlign=top;spacingRight=0;spacingLeft=12;spacingTop=5;spacing=0;absoluteArcSize=1;arcSize=15;fontStyle=2;shadow=0;strokeColor=#82b366;fillColor=#A0AD7B;opacity=60;" parent="1" vertex="1">
                    <mxGeometry x="620.37" y="260" width="58.75" height="40" as="geometry"/>
                </mxCell>
                <mxCell id="568" value="" style="group;fontFamily=Helvetica;" parent="1" vertex="1" connectable="0">
                    <mxGeometry x="625.37" y="230" width="25" height="32" as="geometry"/>
                </mxCell>
                <mxCell id="569" value="" style="endArrow=classic;html=1;strokeWidth=3;endSize=0;strokeColor=#9933FF;fontFamily=Helvetica;" parent="568" edge="1">
                    <mxGeometry width="50" height="50" relative="1" as="geometry">
                        <mxPoint y="32" as="sourcePoint"/>
                        <mxPoint x="25" as="targetPoint"/>
                    </mxGeometry>
                </mxCell>
                <mxCell id="570" value="" style="ellipse;whiteSpace=wrap;html=1;aspect=fixed;fillColor=#9933FF;strokeColor=#9933FF;gradientColor=#CC99FF;gradientDirection=north;fontFamily=Helvetica;" parent="568" vertex="1">
                    <mxGeometry x="1" y="8" width="20" height="20" as="geometry"/>
                </mxCell>
                <mxCell id="571" value="" style="group;fontFamily=Helvetica;" parent="1" vertex="1" connectable="0">
                    <mxGeometry x="650.37" y="230" width="26" height="32" as="geometry"/>
                </mxCell>
                <mxCell id="572" value="" style="group;fontFamily=Helvetica;" parent="571" vertex="1" connectable="0">
                    <mxGeometry x="1" width="25" height="32" as="geometry"/>
                </mxCell>
                <mxCell id="573" value="" style="endArrow=classic;html=1;strokeWidth=3;endSize=0;strokeColor=#CCCCCC;fillColor=#f5f5f5;dashed=1;dashPattern=1 4;fontFamily=Helvetica;" parent="572" edge="1">
                    <mxGeometry width="50" height="50" relative="1" as="geometry">
                        <mxPoint y="32" as="sourcePoint"/>
                        <mxPoint x="25" as="targetPoint"/>
                    </mxGeometry>
                </mxCell>
                <mxCell id="574" value="" style="ellipse;whiteSpace=wrap;html=1;aspect=fixed;fillColor=#f5f5f5;strokeColor=#666666;gradientDirection=north;fontColor=#333333;dashed=1;fontFamily=Helvetica;" parent="572" vertex="1">
                    <mxGeometry x="1" y="8" width="20" height="20" as="geometry"/>
                </mxCell>
                <mxCell id="575" value="" style="endArrow=none;html=1;strokeColor=#FF0000;fontFamily=Helvetica;" parent="571" edge="1">
                    <mxGeometry width="50" height="50" relative="1" as="geometry">
                        <mxPoint y="6" as="sourcePoint"/>
                        <mxPoint x="23" y="29" as="targetPoint"/>
                    </mxGeometry>
                </mxCell>
                <mxCell id="576" value="" style="endArrow=none;html=1;strokeColor=#FF0000;fontFamily=Helvetica;" parent="571" edge="1">
                    <mxGeometry width="50" height="50" relative="1" as="geometry">
                        <mxPoint x="2" y="29" as="sourcePoint"/>
                        <mxPoint x="24" y="5" as="targetPoint"/>
                    </mxGeometry>
                </mxCell>
                <mxCell id="577" value="" style="group;fontFamily=Helvetica;" parent="1" vertex="1" connectable="0">
                    <mxGeometry x="728.37" y="230" width="25" height="32" as="geometry"/>
                </mxCell>
                <mxCell id="578" value="" style="endArrow=classic;html=1;strokeWidth=3;endSize=0;strokeColor=#9933FF;fontFamily=Helvetica;" parent="577" edge="1">
                    <mxGeometry width="50" height="50" relative="1" as="geometry">
                        <mxPoint y="32" as="sourcePoint"/>
                        <mxPoint x="25" as="targetPoint"/>
                    </mxGeometry>
                </mxCell>
                <mxCell id="579" value="" style="ellipse;whiteSpace=wrap;html=1;aspect=fixed;fillColor=#9933FF;strokeColor=#9933FF;gradientColor=#CC99FF;gradientDirection=north;fontFamily=Helvetica;" parent="577" vertex="1">
                    <mxGeometry x="1" y="8" width="20" height="20" as="geometry"/>
                </mxCell>
                <mxCell id="580" value="" style="group;fontFamily=Helvetica;" parent="1" vertex="1" connectable="0">
                    <mxGeometry x="753.37" y="230" width="26" height="32" as="geometry"/>
                </mxCell>
                <mxCell id="581" value="" style="group;fontFamily=Helvetica;" parent="580" vertex="1" connectable="0">
                    <mxGeometry x="1" width="25" height="32" as="geometry"/>
                </mxCell>
                <mxCell id="582" value="" style="endArrow=classic;html=1;strokeWidth=3;endSize=0;strokeColor=#CCCCCC;fillColor=#f5f5f5;dashed=1;dashPattern=1 4;fontFamily=Helvetica;" parent="581" edge="1">
                    <mxGeometry width="50" height="50" relative="1" as="geometry">
                        <mxPoint y="32" as="sourcePoint"/>
                        <mxPoint x="25" as="targetPoint"/>
                    </mxGeometry>
                </mxCell>
                <mxCell id="583" value="" style="ellipse;whiteSpace=wrap;html=1;aspect=fixed;fillColor=#f5f5f5;strokeColor=#666666;gradientDirection=north;fontColor=#333333;dashed=1;fontFamily=Helvetica;" parent="581" vertex="1">
                    <mxGeometry x="1" y="8" width="20" height="20" as="geometry"/>
                </mxCell>
                <mxCell id="584" value="" style="endArrow=none;html=1;strokeColor=#FF0000;fontFamily=Helvetica;" parent="580" edge="1">
                    <mxGeometry width="50" height="50" relative="1" as="geometry">
                        <mxPoint y="6" as="sourcePoint"/>
                        <mxPoint x="23" y="29" as="targetPoint"/>
                    </mxGeometry>
                </mxCell>
                <mxCell id="585" value="" style="endArrow=none;html=1;strokeColor=#FF0000;fontFamily=Helvetica;" parent="580" edge="1">
                    <mxGeometry width="50" height="50" relative="1" as="geometry">
                        <mxPoint x="2" y="29" as="sourcePoint"/>
                        <mxPoint x="24" y="5" as="targetPoint"/>
                    </mxGeometry>
                </mxCell>
                <mxCell id="586" value="" style="group;fontFamily=Helvetica;" parent="1" vertex="1" connectable="0">
                    <mxGeometry x="610.37" y="310" width="80" height="10" as="geometry"/>
                </mxCell>
                <mxCell id="587" value="" style="endArrow=none;html=1;dashed=1;fontFamily=Helvetica;" parent="586" edge="1">
                    <mxGeometry width="50" height="50" relative="1" as="geometry">
                        <mxPoint y="10" as="sourcePoint"/>
                        <mxPoint x="80" y="10" as="targetPoint"/>
                    </mxGeometry>
                </mxCell>
                <mxCell id="588" value="" style="endArrow=none;html=1;dashed=1;fontFamily=Helvetica;" parent="586" edge="1">
                    <mxGeometry width="50" height="50" relative="1" as="geometry">
                        <mxPoint y="10" as="sourcePoint"/>
                        <mxPoint as="targetPoint"/>
                    </mxGeometry>
                </mxCell>
                <mxCell id="589" value="" style="endArrow=none;html=1;dashed=1;fontFamily=Helvetica;" parent="586" edge="1">
                    <mxGeometry width="50" height="50" relative="1" as="geometry">
                        <mxPoint x="80" y="10" as="sourcePoint"/>
                        <mxPoint x="80" as="targetPoint"/>
                    </mxGeometry>
                </mxCell>
                <mxCell id="590" value="LGT&lt;br&gt;iteration &lt;i&gt;j+2&lt;/i&gt;" style="text;html=1;strokeColor=none;fillColor=none;align=center;verticalAlign=middle;whiteSpace=wrap;rounded=0;dashed=1;fontFamily=Helvetica;fontSize=17;" parent="1" vertex="1">
                    <mxGeometry x="710.37" y="320" width="92.5" height="45" as="geometry"/>
                </mxCell>
                <mxCell id="591" value="" style="group;fontFamily=Helvetica;" parent="1" vertex="1" connectable="0">
                    <mxGeometry x="710.37" y="310" width="87.5" height="10" as="geometry"/>
                </mxCell>
                <mxCell id="592" value="" style="endArrow=none;html=1;dashed=1;fontFamily=Helvetica;" parent="591" edge="1">
                    <mxGeometry width="50" height="50" relative="1" as="geometry">
                        <mxPoint y="10" as="sourcePoint"/>
                        <mxPoint x="87.5" y="10" as="targetPoint"/>
                    </mxGeometry>
                </mxCell>
                <mxCell id="593" value="" style="endArrow=none;html=1;dashed=1;fontFamily=Helvetica;" parent="591" edge="1">
                    <mxGeometry width="50" height="50" relative="1" as="geometry">
                        <mxPoint y="10" as="sourcePoint"/>
                        <mxPoint as="targetPoint"/>
                    </mxGeometry>
                </mxCell>
                <mxCell id="595" value="LGT&lt;br&gt;iteration &lt;i&gt;j+1&lt;/i&gt;" style="text;html=1;strokeColor=none;fillColor=none;align=center;verticalAlign=middle;whiteSpace=wrap;rounded=0;dashed=1;fontFamily=Helvetica;fontSize=17;" parent="1" vertex="1">
                    <mxGeometry x="600.87" y="320" width="92.5" height="45" as="geometry"/>
                </mxCell>
                <mxCell id="600" value="" style="group;fontFamily=Helvetica;" parent="1" vertex="1" connectable="0">
                    <mxGeometry x="541.87" y="30" width="25" height="32" as="geometry"/>
                </mxCell>
                <mxCell id="601" value="" style="endArrow=classic;html=1;strokeWidth=3;endSize=0;strokeColor=#9933FF;fontFamily=Helvetica;" parent="600" edge="1">
                    <mxGeometry width="50" height="50" relative="1" as="geometry">
                        <mxPoint y="32" as="sourcePoint"/>
                        <mxPoint x="25" as="targetPoint"/>
                    </mxGeometry>
                </mxCell>
                <mxCell id="602" value="" style="ellipse;whiteSpace=wrap;html=1;aspect=fixed;fillColor=#9933FF;strokeColor=#9933FF;gradientColor=#CC99FF;gradientDirection=north;fontFamily=Helvetica;" parent="600" vertex="1">
                    <mxGeometry x="1" y="8" width="20" height="20" as="geometry"/>
                </mxCell>
                <mxCell id="603" value="" style="group;fontFamily=Helvetica;" parent="1" vertex="1" connectable="0">
                    <mxGeometry x="697.87" y="30" width="26" height="32" as="geometry"/>
                </mxCell>
                <mxCell id="604" value="" style="group;fontFamily=Helvetica;" parent="603" vertex="1" connectable="0">
                    <mxGeometry x="1" width="25" height="32" as="geometry"/>
                </mxCell>
                <mxCell id="605" value="" style="endArrow=classic;html=1;strokeWidth=3;endSize=0;strokeColor=#CCCCCC;fillColor=#f5f5f5;dashed=1;dashPattern=1 4;fontFamily=Helvetica;" parent="604" edge="1">
                    <mxGeometry width="50" height="50" relative="1" as="geometry">
                        <mxPoint y="32" as="sourcePoint"/>
                        <mxPoint x="25" as="targetPoint"/>
                    </mxGeometry>
                </mxCell>
                <mxCell id="606" value="" style="ellipse;whiteSpace=wrap;html=1;aspect=fixed;fillColor=#f5f5f5;strokeColor=#666666;gradientDirection=north;fontColor=#333333;dashed=1;fontFamily=Helvetica;" parent="604" vertex="1">
                    <mxGeometry x="1" y="8" width="20" height="20" as="geometry"/>
                </mxCell>
                <mxCell id="607" value="" style="endArrow=none;html=1;strokeColor=#FF0000;fontFamily=Helvetica;" parent="603" edge="1">
                    <mxGeometry width="50" height="50" relative="1" as="geometry">
                        <mxPoint y="6" as="sourcePoint"/>
                        <mxPoint x="23" y="29" as="targetPoint"/>
                    </mxGeometry>
                </mxCell>
                <mxCell id="608" value="" style="endArrow=none;html=1;strokeColor=#FF0000;fontFamily=Helvetica;" parent="603" edge="1">
                    <mxGeometry width="50" height="50" relative="1" as="geometry">
                        <mxPoint x="2" y="29" as="sourcePoint"/>
                        <mxPoint x="24" y="5" as="targetPoint"/>
                    </mxGeometry>
                </mxCell>
                <mxCell id="609" value="Qubit created" style="text;html=1;align=center;verticalAlign=middle;whiteSpace=wrap;rounded=0;fontSize=17;fontFamily=Helvetica;" parent="1" vertex="1">
                    <mxGeometry x="567.87" y="31" width="120" height="30" as="geometry"/>
                </mxCell>
                <mxCell id="610" value="Qubit measured" style="text;html=1;align=center;verticalAlign=middle;whiteSpace=wrap;rounded=0;fontSize=17;fontFamily=Helvetica;" parent="1" vertex="1">
                    <mxGeometry x="727.87" y="30" width="130" height="30" as="geometry"/>
                </mxCell>
                <mxCell id="616" value="" style="group;fontFamily=Helvetica;" parent="1" vertex="1" connectable="0">
                    <mxGeometry x="130" y="100" width="280" height="10" as="geometry"/>
                </mxCell>
                <mxCell id="612" value="" style="endArrow=none;html=1;dashed=1;fontFamily=Helvetica;" parent="616" edge="1">
                    <mxGeometry width="50" height="50" relative="1" as="geometry">
                        <mxPoint as="sourcePoint"/>
                        <mxPoint x="280" as="targetPoint"/>
                    </mxGeometry>
                </mxCell>
                <mxCell id="613" value="" style="endArrow=none;html=1;dashed=1;fontFamily=Helvetica;" parent="616" edge="1">
                    <mxGeometry width="50" height="50" relative="1" as="geometry">
                        <mxPoint as="sourcePoint"/>
                        <mxPoint y="10" as="targetPoint"/>
                    </mxGeometry>
                </mxCell>
                <mxCell id="614" value="" style="endArrow=none;html=1;dashed=1;fontFamily=Helvetica;" parent="616" edge="1">
                    <mxGeometry width="50" height="50" relative="1" as="geometry">
                        <mxPoint x="280" as="sourcePoint"/>
                        <mxPoint x="280" y="10" as="targetPoint"/>
                    </mxGeometry>
                </mxCell>
                <mxCell id="617" value="&lt;span style=&quot;font-size: 17px;&quot;&gt;DQC i&lt;/span&gt;&lt;span style=&quot;font-size: 17px;&quot;&gt;teration&amp;nbsp;&lt;/span&gt;&lt;i style=&quot;font-size: 17px;&quot;&gt;i&lt;/i&gt;" style="text;html=1;align=center;verticalAlign=middle;whiteSpace=wrap;rounded=0;fontFamily=Helvetica;" parent="1" vertex="1">
                    <mxGeometry x="182" y="90" width="170" as="geometry"/>
                </mxCell>
                <mxCell id="618" value="" style="group;fontFamily=Helvetica;" parent="1" vertex="1" connectable="0">
                    <mxGeometry x="425" y="100" width="310" height="10" as="geometry"/>
                </mxCell>
                <mxCell id="619" value="" style="endArrow=none;html=1;dashed=1;fontFamily=Helvetica;" parent="618" edge="1">
                    <mxGeometry width="50" height="50" relative="1" as="geometry">
                        <mxPoint as="sourcePoint"/>
                        <mxPoint x="310" as="targetPoint"/>
                    </mxGeometry>
                </mxCell>
                <mxCell id="620" value="" style="endArrow=none;html=1;dashed=1;fontFamily=Helvetica;" parent="618" edge="1">
                    <mxGeometry width="50" height="50" relative="1" as="geometry">
                        <mxPoint as="sourcePoint"/>
                        <mxPoint y="10" as="targetPoint"/>
                    </mxGeometry>
                </mxCell>
                <mxCell id="621" value="" style="endArrow=none;html=1;dashed=1;fontFamily=Helvetica;" parent="618" edge="1">
                    <mxGeometry width="50" height="50" relative="1" as="geometry">
                        <mxPoint x="310" as="sourcePoint"/>
                        <mxPoint x="310" y="10" as="targetPoint"/>
                    </mxGeometry>
                </mxCell>
                <mxCell id="622" value="&lt;span style=&quot;font-size: 17px;&quot;&gt;DQC i&lt;/span&gt;&lt;span style=&quot;font-size: 17px;&quot;&gt;teration&amp;nbsp;&lt;/span&gt;&lt;i style=&quot;font-size: 17px;&quot;&gt;i + 1&lt;/i&gt;" style="text;html=1;align=center;verticalAlign=middle;whiteSpace=wrap;rounded=0;fontFamily=Helvetica;" parent="1" vertex="1">
                    <mxGeometry x="490" y="90" width="195" as="geometry"/>
                </mxCell>
                <mxCell id="628" value="" style="group;fontFamily=Helvetica;fontSize=17;" parent="1" vertex="1" connectable="0">
                    <mxGeometry x="125" y="140" width="47" height="140" as="geometry"/>
                </mxCell>
                <mxCell id="629" value="" style="endArrow=classic;html=1;startArrow=classic;startFill=1;fontFamily=Helvetica;" parent="628" edge="1">
                    <mxGeometry width="50" height="50" relative="1" as="geometry">
                        <mxPoint x="20" as="sourcePoint"/>
                        <mxPoint x="20" y="140" as="targetPoint"/>
                    </mxGeometry>
                </mxCell>
                <mxCell id="630" value="" style="endArrow=classic;html=1;startArrow=classic;startFill=1;fontFamily=Helvetica;" parent="628" edge="1">
                    <mxGeometry width="50" height="50" relative="1" as="geometry">
                        <mxPoint x="30" as="sourcePoint"/>
                        <mxPoint x="30" y="140" as="targetPoint"/>
                    </mxGeometry>
                </mxCell>
                <mxCell id="631" value="" style="endArrow=classic;html=1;startArrow=classic;startFill=1;fontFamily=Helvetica;" parent="628" edge="1">
                    <mxGeometry width="50" height="50" relative="1" as="geometry">
                        <mxPoint x="47" as="sourcePoint"/>
                        <mxPoint x="47" y="140" as="targetPoint"/>
                    </mxGeometry>
                </mxCell>
                <mxCell id="632" value="..." style="text;html=1;strokeColor=none;fillColor=none;align=center;verticalAlign=middle;whiteSpace=wrap;rounded=0;fontFamily=Helvetica;" parent="628" vertex="1">
                    <mxGeometry x="33" y="61" width="10" height="10" as="geometry"/>
                </mxCell>
                <mxCell id="633" value="Attempts" style="text;html=1;strokeColor=none;fillColor=none;align=center;verticalAlign=middle;whiteSpace=wrap;rounded=0;horizontal=0;fontFamily=Helvetica;fontSize=17;" parent="628" vertex="1">
                    <mxGeometry y="38" width="17.5" height="61" as="geometry"/>
                </mxCell>
                <mxCell id="634" value="" style="group;fontFamily=Helvetica;fontSize=17;" parent="1" vertex="1" connectable="0">
                    <mxGeometry x="454" y="139" width="47" height="140" as="geometry"/>
                </mxCell>
                <mxCell id="635" value="" style="endArrow=classic;html=1;startArrow=classic;startFill=1;fontFamily=Helvetica;" parent="634" edge="1">
                    <mxGeometry width="50" height="50" relative="1" as="geometry">
                        <mxPoint x="20" as="sourcePoint"/>
                        <mxPoint x="20" y="140" as="targetPoint"/>
                    </mxGeometry>
                </mxCell>
                <mxCell id="636" value="" style="endArrow=classic;html=1;startArrow=classic;startFill=1;fontFamily=Helvetica;" parent="634" edge="1">
                    <mxGeometry width="50" height="50" relative="1" as="geometry">
                        <mxPoint x="30" as="sourcePoint"/>
                        <mxPoint x="30" y="140" as="targetPoint"/>
                    </mxGeometry>
                </mxCell>
                <mxCell id="637" value="" style="endArrow=classic;html=1;startArrow=classic;startFill=1;fontFamily=Helvetica;" parent="634" edge="1">
                    <mxGeometry width="50" height="50" relative="1" as="geometry">
                        <mxPoint x="47" as="sourcePoint"/>
                        <mxPoint x="47" y="140" as="targetPoint"/>
                    </mxGeometry>
                </mxCell>
                <mxCell id="638" value="..." style="text;html=1;strokeColor=none;fillColor=none;align=center;verticalAlign=middle;whiteSpace=wrap;rounded=0;fontFamily=Helvetica;" parent="634" vertex="1">
                    <mxGeometry x="33" y="61" width="10" height="10" as="geometry"/>
                </mxCell>
                <mxCell id="639" value="&lt;font style=&quot;font-size: 17px;&quot;&gt;Attempts&lt;/font&gt;" style="text;html=1;strokeColor=none;fillColor=none;align=center;verticalAlign=middle;whiteSpace=wrap;rounded=0;horizontal=0;fontFamily=Helvetica;" parent="634" vertex="1">
                    <mxGeometry y="38" width="17.5" height="61" as="geometry"/>
                </mxCell>
                <mxCell id="644" value="" style="group" parent="1" vertex="1" connectable="0">
                    <mxGeometry x="90" y="139.99999999999994" width="20" height="200.20000000000005" as="geometry"/>
                </mxCell>
                <mxCell id="596" value="" style="endArrow=none;dashed=1;html=1;dashPattern=1 3;strokeWidth=2;fontFamily=Helvetica;" parent="644" edge="1">
                    <mxGeometry width="50" height="50" relative="1" as="geometry">
                        <mxPoint as="sourcePoint"/>
                        <mxPoint x="20" as="targetPoint"/>
                    </mxGeometry>
                </mxCell>
                <mxCell id="598" value="" style="endArrow=none;dashed=1;html=1;dashPattern=1 3;strokeWidth=2;fontFamily=Helvetica;" parent="644" edge="1">
                    <mxGeometry width="50" height="50" relative="1" as="geometry">
                        <mxPoint y="140" as="sourcePoint"/>
                        <mxPoint x="20" y="140" as="targetPoint"/>
                    </mxGeometry>
                </mxCell>
                <mxCell id="599" value="" style="endArrow=none;dashed=1;html=1;dashPattern=1 3;strokeWidth=2;fontFamily=Helvetica;" parent="644" edge="1">
                    <mxGeometry width="50" height="50" relative="1" as="geometry">
                        <mxPoint y="200.20000000000005" as="sourcePoint"/>
                        <mxPoint x="20" y="200.20000000000005" as="targetPoint"/>
                    </mxGeometry>
                </mxCell>
                <mxCell id="645" value="" style="group" parent="1" vertex="1" connectable="0">
                    <mxGeometry x="850" y="138.99999999999994" width="20" height="200.20000000000005" as="geometry"/>
                </mxCell>
                <mxCell id="646" value="" style="endArrow=none;dashed=1;html=1;dashPattern=1 3;strokeWidth=2;fontFamily=Helvetica;" parent="645" edge="1">
                    <mxGeometry width="50" height="50" relative="1" as="geometry">
                        <mxPoint x="-20" as="sourcePoint"/>
                        <mxPoint as="targetPoint"/>
                    </mxGeometry>
                </mxCell>
                <mxCell id="594" value="" style="endArrow=none;html=1;dashed=1;fontFamily=Helvetica;" parent="1" edge="1">
                    <mxGeometry width="50" height="50" relative="1" as="geometry">
                        <mxPoint x="797.87" y="320" as="sourcePoint"/>
                        <mxPoint x="797.87" y="310" as="targetPoint"/>
                    </mxGeometry>
                </mxCell>
                <mxCell id="648" value="" style="endArrow=none;dashed=1;html=1;dashPattern=1 3;strokeWidth=2;fontFamily=Helvetica;" parent="1" edge="1">
                    <mxGeometry width="50" height="50" relative="1" as="geometry">
                        <mxPoint x="830" y="278.99999999999994" as="sourcePoint"/>
                        <mxPoint x="850" y="278.99999999999994" as="targetPoint"/>
                    </mxGeometry>
                </mxCell>
                <mxCell id="649" value="" style="endArrow=none;dashed=1;html=1;dashPattern=1 3;strokeWidth=2;fontFamily=Helvetica;" parent="1" edge="1">
                    <mxGeometry width="50" height="50" relative="1" as="geometry">
                        <mxPoint x="830" y="339.2" as="sourcePoint"/>
                        <mxPoint x="850" y="339.2" as="targetPoint"/>
                    </mxGeometry>
                </mxCell>
            </root>
        </mxGraphModel>
    </diagram>
</mxfile>